<svg xmlns="http://www.w3.org/2000/svg" width="179" height="40" fill="none"><g clip-path="url(#a)"><circle cx="20" cy="20" r="16" fill="#FF842B"/><path fill="#000" fill-rule="evenodd" d="M20.874 25.356c9.435-1.569 16.627-5.642 16.064-9.098a2.595 2.595 0 0 0-.559-1.21c1.42.706 2.303 1.623 2.482 2.72.615 3.772-7.354 8.238-17.8 9.974-10.446 1.737-19.413.086-20.028-3.687-.21-1.285.578-2.651 2.119-3.962-.343.623-.48 1.243-.382 1.844.564 3.456 8.669 4.987 18.104 3.419Z" clip-rule="evenodd"/><path fill="#FF842B" d="M52.992 27.5v-5.688h4.08c3.456 0 5.376-2.376 5.376-5.16 0-2.808-1.896-5.16-5.376-5.16h-7.488V27.5h3.408Zm3.624-8.688h-3.624v-4.32h3.624c1.344 0 2.352.816 2.352 2.16 0 1.32-1.008 2.16-2.352 2.16Zm10.92 8.688V11.492H64.49V27.5h3.048Zm13.03 0v-7.488c0-3.336-2.423-4.392-5.063-4.392-1.824 0-3.648.576-5.064 1.824l1.152 2.04c.984-.912 2.136-1.368 3.384-1.368 1.536 0 2.544.768 2.544 1.944v1.56c-.768-.912-2.136-1.416-3.672-1.416-1.848 0-4.032 1.032-4.032 3.744 0 2.592 2.184 3.84 4.032 3.84 1.512 0 2.88-.552 3.672-1.488v1.2h3.048Zm-5.495-1.776c-1.2 0-2.184-.624-2.184-1.704 0-1.128.984-1.752 2.184-1.752.984 0 1.944.336 2.448 1.008v1.44c-.504.672-1.464 1.008-2.448 1.008ZM94.462 27.5v-8.184c0-2.256-1.224-3.696-3.768-3.696-1.896 0-3.312.912-4.056 1.8v-1.512H83.59V27.5h3.048v-7.8c.504-.696 1.44-1.368 2.64-1.368 1.296 0 2.136.552 2.136 2.16V27.5h3.048Zm8.475.288c1.8 0 3.624-.552 4.776-1.608l-1.344-1.968c-.744.72-2.112 1.152-3.096 1.152-1.968 0-3.144-1.224-3.336-2.688h8.616v-.672c0-3.792-2.352-6.384-5.808-6.384-3.528 0-6 2.712-6 6.072 0 3.72 2.664 6.096 6.192 6.096Zm2.664-7.176h-5.712c.144-1.152.96-2.568 2.856-2.568 2.016 0 2.784 1.464 2.856 2.568Zm9.041 7.176c1.272 0 2.088-.336 2.544-.744l-.648-2.304c-.168.168-.6.336-1.056.336-.672 0-1.056-.552-1.056-1.272v-5.232h2.352v-2.664h-2.352V12.74h-3.072v3.168h-1.92v2.664h1.92v6.048c0 2.064 1.152 3.168 3.288 3.168Z"/><path fill="#000" d="M129.112 27.5v-3h-6.768V11.492h-3.408V27.5h10.176Zm7.504.288c1.8 0 3.624-.552 4.776-1.608l-1.344-1.968c-.744.72-2.112 1.152-3.096 1.152-1.968 0-3.144-1.224-3.336-2.688h8.616v-.672c0-3.792-2.352-6.384-5.808-6.384-3.528 0-6 2.712-6 6.072 0 3.72 2.664 6.096 6.192 6.096Zm2.664-7.176h-5.712c.144-1.152.96-2.568 2.856-2.568 2.016 0 2.784 1.464 2.856 2.568Zm15.162 6.888v-7.488c0-3.336-2.424-4.392-5.064-4.392-1.824 0-3.648.576-5.064 1.824l1.152 2.04c.984-.912 2.136-1.368 3.384-1.368 1.536 0 2.544.768 2.544 1.944v1.56c-.768-.912-2.136-1.416-3.672-1.416-1.848 0-4.032 1.032-4.032 3.744 0 2.592 2.184 3.84 4.032 3.84 1.512 0 2.88-.552 3.672-1.488v1.2h3.048Zm-5.496-1.776c-1.2 0-2.184-.624-2.184-1.704 0-1.128.984-1.752 2.184-1.752.984 0 1.944.336 2.448 1.008v1.44c-.504.672-1.464 1.008-2.448 1.008Zm11.567 1.776v-7.656c.504-.744 1.848-1.32 2.856-1.32.336 0 .624.024.84.072V15.62c-1.44 0-2.88.84-3.696 1.872v-1.584h-3.048V27.5h3.048Zm16.473 0v-8.184c0-2.256-1.224-3.696-3.768-3.696-1.896 0-3.312.912-4.056 1.8v-1.512h-3.048V27.5h3.048v-7.8c.504-.696 1.44-1.368 2.64-1.368 1.296 0 2.136.552 2.136 2.16V27.5h3.048Z"/></g><defs><clipPath id="a"><path fill="#fff" d="M0 0h179v40H0z"/></clipPath></defs></svg>
