<svg width="50" height="32" viewBox="0 0 50 32" fill="none" xmlns="http://www.w3.org/2000/svg">
<g clip-path="url(#clip0_1645_4910)">
<path d="M6.00006 9.00192H2.11098C1.84485 9.00192 1.61852 9.19527 1.577 9.45799L0.00408279 19.4306C-0.0271937 19.6274 0.125207 19.8048 0.324808 19.8048H2.18149C2.44763 19.8048 2.67396 19.6115 2.71547 19.3482L3.13969 16.6584C3.18063 16.3951 3.40753 16.2018 3.67309 16.2018H4.90425C7.46607 16.2018 8.9446 14.9621 9.33072 12.5055C9.50473 11.4307 9.33811 10.5862 8.83485 9.99481C8.28211 9.34539 7.30173 9.00192 6.00006 9.00192ZM6.44874 12.6442C6.23606 14.0397 5.16981 14.0397 4.13883 14.0397H3.55197L3.96368 11.4335C3.98813 11.276 4.12461 11.16 4.28384 11.16H4.55282C5.25511 11.16 5.91761 11.16 6.25994 11.5603C6.46409 11.7992 6.52664 12.154 6.44874 12.6442Z" fill="#253B80"/>
<path d="M17.625 12.5979H15.7626C15.6039 12.5979 15.4669 12.7139 15.4424 12.8714L15.36 13.3923L15.2298 13.2035C14.8266 12.6184 13.9275 12.4228 13.0302 12.4228C10.9722 12.4228 9.21445 13.9815 8.87212 16.168C8.69413 17.2587 8.94718 18.3016 9.56589 19.0289C10.1334 19.6977 10.9455 19.9763 11.9116 19.9763C13.5698 19.9763 14.4894 18.9101 14.4894 18.9101L14.4063 19.4275C14.3751 19.6254 14.5275 19.8029 14.7259 19.8029H16.4035C16.6702 19.8029 16.8954 19.6095 16.9375 19.3462L17.944 12.9721C17.9758 12.7759 17.824 12.5979 17.625 12.5979ZM15.029 16.2226C14.8493 17.2865 14.0049 18.0008 12.9278 18.0008C12.387 18.0008 11.9548 17.8273 11.6773 17.4986C11.4021 17.1722 11.2975 16.7076 11.385 16.1902C11.5528 15.1353 12.4115 14.3977 13.472 14.3977C14.0009 14.3977 14.4308 14.5734 14.714 14.905C14.9978 15.2399 15.1103 15.7074 15.029 16.2226Z" fill="#253B80"/>
<path d="M27.5437 12.5979H25.6722C25.4937 12.5979 25.3259 12.6866 25.2247 12.835L22.6435 16.6371L21.5494 12.9835C21.4806 12.7549 21.2697 12.5979 21.0308 12.5979H19.1918C18.9683 12.5979 18.813 12.8163 18.8841 13.0267L20.9455 19.0761L19.0075 21.8119C18.8551 22.0275 19.0087 22.3237 19.2719 22.3237H21.1411C21.3186 22.3237 21.4846 22.2373 21.5853 22.0917L27.8098 13.1069C27.9588 12.8919 27.8059 12.5979 27.5437 12.5979Z" fill="#253B80"/>
<path d="M33.7403 9.00056H29.8506C29.5851 9.00056 29.3588 9.19391 29.3172 9.45663L27.7443 19.4293C27.713 19.626 27.8654 19.8035 28.0639 19.8035H30.0599C30.2453 19.8035 30.404 19.6681 30.433 19.4839L30.8794 16.657C30.9203 16.3937 31.1472 16.2004 31.4128 16.2004H32.6434C35.2057 16.2004 36.6837 14.9607 37.0704 12.5041C37.245 11.4293 37.0772 10.5849 36.5739 9.99345C36.0218 9.34404 35.042 9.00056 33.7403 9.00056ZM34.189 12.6429C33.9769 14.0383 32.9106 14.0383 31.8791 14.0383H31.2928L31.7051 11.4322C31.7295 11.2746 31.8648 11.1586 32.0246 11.1586H32.2936C32.9954 11.1586 33.6584 11.1586 34.0007 11.559C34.2049 11.7978 34.2669 12.1527 34.189 12.6429Z" fill="#179BD7"/>
<path d="M45.3642 12.5979H43.503C43.3432 12.5979 43.2073 12.7139 43.1834 12.8714L43.101 13.3923L42.9702 13.2035C42.567 12.6184 41.6685 12.4228 40.7712 12.4228C38.7132 12.4228 36.956 13.9815 36.6137 16.168C36.4362 17.2587 36.6882 18.3016 37.3069 19.0289C37.8755 19.6977 38.6864 19.9763 39.6526 19.9763C41.3108 19.9763 42.2303 18.9101 42.2303 18.9101L42.1473 19.4275C42.116 19.6254 42.2684 19.8029 42.468 19.8029H44.145C44.4106 19.8029 44.6369 19.6095 44.6784 19.3462L45.6855 12.9721C45.7162 12.7759 45.5638 12.5979 45.3642 12.5979ZM42.7683 16.2226C42.5897 17.2865 41.7441 18.0008 40.6671 18.0008C40.1274 18.0008 39.6941 17.8273 39.4166 17.4986C39.1414 17.1722 39.0379 16.7076 39.1243 16.1902C39.2932 15.1353 40.1507 14.3977 41.2113 14.3977C41.7402 14.3977 42.1701 14.5734 42.4533 14.905C42.7382 15.2399 42.8508 15.7074 42.7683 16.2226Z" fill="#179BD7"/>
<path d="M47.5598 9.2741L45.9636 19.4293C45.9323 19.626 46.0847 19.8035 46.2831 19.8035H47.8879C48.1546 19.8035 48.3809 19.6101 48.4219 19.3468L49.9959 9.37475C50.0272 9.17799 49.8748 9 49.6764 9H47.8794C47.7207 9.00057 47.5842 9.11658 47.5598 9.2741Z" fill="#179BD7"/>
</g>
<defs>
<clipPath id="clip0_1645_4910">
<rect width="50" height="32" fill="white"/>
</clipPath>
</defs>
</svg>
