<svg xmlns="http://www.w3.org/2000/svg" width="200" height="80" fill="none"><path fill="#FF842B" stroke="#000" d="M15.09 46.28c-.335-6.4 2.515-20.678 16.6-26.586 14.083-5.908 33.365-7.057 41.246-6.893-2.012 1.477-6.137 4.53-6.54 4.923-.402.394.839.821 1.51.985 5.197-.656 16.398-1.87 19.617-1.477 4.024.492 15.593-4.431 21.629-3.939 4.829.394 6.707.82 7.042.985-4.024.164-12.977 1.87-16.599 7.385 0 .492 21.63-1.477 29.678-4.431 8.048-2.954 22.635-5.416 32.192-1.477-5.365.328-17.203 1.97-21.629 5.908-5.533 4.924-13.581 10.832-19.618 15.263-4.828 3.545-15.76 5.087-20.623 5.416 3.018.984 10.362 3.052 15.593 3.446 5.232.394 7.881 1.149 8.552 1.477-3.186-.164-11.167.098-17.606 2.462-6.438 2.363-15.76 2.954-19.617 2.954 1.23 1.07 4.129 3.076 7.337 3.996.916.095 1.664.253 2.22.435a12.508 12.508 0 0 1-2.22-.435c-4.05-.421-11.379.39-19.912 5.85-13.078 8.37-38.732 11.817-48.792 5.416-8.048-5.12-10.06-16.575-10.06-21.663Z"/><path fill="#FFE600" d="M39.235 27.571c-3.521-2.462-6.54-.492-11.066 3.939-2.688 2.462-1.006 7.385-1.006 8.37 0 .984-5.533.984-6.036 7.385-.503 6.4 7.042 5.416 7.042 6.893 1.207 5.908 6.204 7.713 8.55 7.877-2.011.657 2.013 4.431 5.03 5.416 8.049 2.626 13.75-3.775 15.091-7.385.838 0 3.42-.788 7.042-3.939 3.622-3.15.168-7.22-2.012-8.862.67-.164 2.616-.985 5.03-2.954 3.018-2.462 1.006-6.4-.503-8.37-1.509-1.97-2.012-2.462-2.515-6.893-.503-4.43-6.539-4.43-8.55-3.938-2.013.492-3.522-2.462-8.552-2.462-5.03 0-4.024 7.385-7.545 4.923Z"/><path fill="#3A3A3A" d="M55.208 27.494c-1.764-2.729-4.59-5.16-8.116-4.195-3.698 1.002-4.608 4.603-4.987 7.87-.114 1.02-1.744.927-1.82-.075-.683-9.595 12.022-13.177 15.89-4.083.227.557-.626 1.002-.948.483h-.02Z"/><path fill="#3A3A3A" d="M41.575 32.746c-.91-.65-2.067-1.15-3.072-.445-1.062.724-1.214 2.153-2.352 2.765-.34.186-.796.111-.948-.297-.663-1.726 1.157-3.823 2.674-4.547 1.782-.854 3.584-.167 4.95 1.095.91.835-.247 2.134-1.233 1.43h-.02Z"/><path fill="#3A3A3A" d="M40.114 28.403c-1.763-.427-3.11-1.355-5.025-1.058-2.142.334-4.058 1.652-5.423 3.248-1.346 1.578-2.256 3.545-2.37 5.605-.114 2.246 1.308 3.768 1.63 5.847.077.52-.53.91-.985.686-2.238-1.095-2.845-4.51-2.674-6.737.17-2.543 1.365-4.974 3.129-6.849 2.503-2.654 9.69-5.976 12.173-1.41.171.297-.019.78-.436.687l-.019-.019Z"/><path fill="#3A3A3A" d="M30.12 40.616c-.17.575-.397 1.169-.492 1.763-.095.482.057.965-.057 1.429-.114.39-.493.52-.853.297-1.138-.742-.171-2.933.227-3.86.266-.632 1.384-.297 1.176.37Z"/><path fill="#3A3A3A" d="M27.05 40.801c-2.712 1.318-4.874 3.86-4.76 6.942.152 3.712 3.508 4.88 6.77 5.14 1.042.075.966 1.801-.076 1.801-4.134-.018-8.192-2.134-8.514-6.552-.285-3.804 2.427-7.48 6.162-8.407.74-.186 1.081.742.398 1.076h.02Z"/><path fill="#3A3A3A" d="M29.875 51.306c-1.005 3.267-1.119 6.348 2.256 8.278 3.072 1.763 6.447 1.04 9.31-.724 1.043-.63 1.992.743 1.081 1.522-3.261 2.747-8.38 2.895-11.908.538-3.45-2.301-4.418-6.811-2.029-10.208.398-.575 1.498-.093 1.29.594Z"/><path fill="#3A3A3A" d="M37.194 60.939c1.08 4.566 3.925 6.719 8.855 6.05 5.158-.705 8.95-4.157 9.974-9.131.266-1.28 2.162-.928 2.01.353-.72 6.106-6.447 10.375-12.496 10.82-4.702.353-10.751-2.45-9.538-7.98.114-.539 1.062-.743 1.214-.112h-.019ZM54.696 24.468c2.522-1.707 5.689-1.076 7.907.928 1.915 1.745 3.982 6.2 1.688 8.39-.436.408-1.081.204-1.195-.372-.227-1.15.285-2.283.057-3.489a5.96 5.96 0 0 0-1.745-3.174c-1.611-1.54-4.02-2.079-6.143-1.225-.664.279-1.157-.686-.57-1.076v.018Z"/><path fill="#3A3A3A" d="M60.024 31.299c5.196-.613 9.12 3.841 9.197 8.686.076 4.194-4.513 10.505-9.443 8.222-.436-.205-.57-.91-.095-1.17 1.84-.983 3.963-.724 5.594-2.264 1.327-1.262 1.934-3.08 1.915-4.844-.038-4.232-3.091-6.849-7.225-7.053-.948-.056-.815-1.485.057-1.577Z"/><path fill="#3A3A3A" d="M63 47.316c2.959 1.355 3.907 4.881 2.77 7.74-1.366 3.451-5.045 5.642-8.685 6.05-1.385.148-1.517-1.82-.209-2.079 2.75-.538 5.461-1.8 6.808-4.38 1.346-2.58.208-4.417-1.46-6.459-.399-.483.227-1.114.758-.872H63ZM54.582 32.264c2.2.965 3.868 2.932 3.49 5.4-.342 2.265-2.466 4.64-4.855 4.845-.702.055-.948-.78-.455-1.188 1.365-1.114 3.015-1.67 3.602-3.49.626-1.948-.72-3.489-2.313-4.472-.645-.409-.209-1.43.531-1.095ZM58.015 44.309c1.175 1.02 1.763 2.246 1.479 3.805-.266 1.466-1.195 2.932-2.598 3.545-.455.204-.834-.316-.664-.706.417-.965 1.214-1.689 1.574-2.69.417-1.133.038-2.228-.645-3.193-.379-.52.36-1.206.854-.761ZM39.09 42.509c-.683 1.856-1.138 3.6.133 5.364 1.251 1.726 2.996 1.633 4.797 2.375.531.223.38.873-.057 1.095-2.313 1.132-5.271-.872-6.428-2.784-1.232-2.023-1.308-4.992.53-6.7.513-.483 1.271 0 1.025.65ZM52.838 48.392c-.246.928-.645 1.652-1.441 2.246-.683.501-1.688 1.002-2.446.446-.266-.186-.228-.539-.057-.78.36-.501 1.005-.501 1.517-.835.53-.353.986-.891 1.29-1.43.303-.556 1.327-.315 1.137.353ZM52.895 57.858c-.417 1.373-1.043 2.32-2.427 2.932-1.252.557-2.94.761-4.21.149-.38-.186-.398-.798.038-.928 1.005-.316 2.086-.186 3.09-.501 1.006-.297 1.878-1.095 2.333-2.023.285-.594 1.365-.316 1.157.37h.019ZM49.235 37.182c-2.162-1.04-4.172-.464-6.447-.445-.417 0-.796-.613-.322-.854 2.446-1.262 5.195-1.448 7.509.167.644.445-.057 1.466-.74 1.132Z"/><path fill="#3A3A3A" d="M72.577 13.147c-12.25.965-25.504.65-36.995 5.456C22.498 24.08 12.998 37.46 16.013 51.622c6.807 32.071 46.874 15.813 66.14 6.477.55-.278 1.024.631.512.947C63.229 70.868 21.34 85.01 14.174 52.16c-2.427-11.117 2.522-22.402 11.301-29.548C38.597 11.94 56.535 13.128 72.52 12.33c.53-.018.626.78.076.817h-.02Z"/><path fill="#3A3A3A" d="M73.961 13.685c-2.465 1.244-4.76 2.58-7.016 4.139-.398.278-.872-.241-.569-.613 1.802-2.19 4.608-3.452 7.187-4.584.683-.297 1.043.724.398 1.058ZM67.571 18.158c8.798-2.042 17.635-.78 26.566-3.007 7.509-1.874 14.43-3.805 22.091-1.466.625.186.493 1.15-.19 1.002-9.405-1.949-17.16.928-26.206 2.859-7.357 1.577-14.733.055-22.09 1.336-.418.074-.588-.631-.171-.724Z"/><path fill="#3A3A3A" d="M116.19 14.687c-3.375.13-14.544 3.657-16.08 7.573-.284.705-1.365.204-1.1-.501.057-.149.095-.297.152-.446.095-.334.36-.538.72-.501 21.636 2.71 41.338-14.198 62.746-5.345.493.204.246 1.058-.285.91-13.463-4.028-24.84-.947-37.886 2.895-2.029.594-24.783 4.324-24.328 3.006-.209.631-1.346.279-1.138-.352 1.536-4.752 12.534-8.278 17.123-8.204.645 0 .758.965.095 1.002l-.019-.037Z"/><path fill="#3A3A3A" d="M161.623 16.655c-15.151-.056-25.542 7.943-36.18 17.372-8.722 7.758-16.421 8.222-27.798 9.484-.663.074-.948-.984-.265-1.15 7.319-1.894 14.6-.929 21.313-5.068 4.968-3.062 8.647-7.628 13.16-11.229 8.286-6.644 18.981-11.247 29.808-10.152.436.037.417.761-.038.761v-.018Z"/><path fill="#3A3A3A" d="M99.105 41.377c8.021 5.308 19.094.593 26.452 6.681.36.297 0 .854-.436.668-8.742-3.712-18.925-.78-26.945-6.254-.778-.52.17-1.596.948-1.095h-.02Z"/><path fill="#3A3A3A" d="M124.59 48.615c-8.04-2.097-14.563 1.707-22.148 3.508-5.859 1.392-12.325 1.782-18.355 2.079-.512.018-.607-.613-.19-.817 6.58-3.304 15.966-2.209 23.172-4.325 6.106-1.781 11.624-3.637 17.805-1.354.512.185.247 1.039-.284.909Z"/><path fill="#3A3A3A" d="M85.718 53.125c3.83 1.782 7.888 2.19 11.832 3.508.38.13.265.798-.133.78-4.02-.056-8.666-1.374-12.155-3.323-.606-.334-.17-1.299.475-.984l-.02.019Z"/><path fill="#3A3A3A" d="M97.702 58.248c-3.072-.26-6.049-.539-9.14-.26-2.9.26-5.631 1.095-8.476 1.652-.455.092-.72-.613-.303-.836 5.006-2.654 12.667-3.025 18.07-1.392.532.168.418.873-.151.836ZM48.21 12.739C62.64 10.678 76.37-.514 91.293 2.492c.588.112.436.965-.17.91-15.625-1.485-27.647 10.19-42.836 10.245-.587 0-.682-.817-.094-.91h.019Z"/><path fill="#3A3A3A" d="M91.35 3.329c-2.067.928-7.111 5.215-8.23 4.77.607.24 2.844-1.021 3.432-1.263 5.764-2.338 12.477-3.433 18.621-4.268 12.629-1.745 27.097-2.32 39.1 2.56.493.205.227 1.04-.285.892-11.301-3.323-22.868-3.898-34.568-2.71-6.068.612-12.097 1.633-17.995 3.248-2.123.575-6.523 1.058-8.153 2.635-.304.297-.968.112-.835-.39.854-3.136 5.898-5.14 8.647-6.217.493-.204.758.538.284.761l-.019-.018Z"/><path fill="#3A3A3A" d="M144.235 6.02c-3.887 1.002-7.774 2.765-11.719 3.415-.436.074-.701-.594-.303-.798 3.47-1.893 7.888-2.951 11.794-3.601.569-.093.797.835.228.984Z"/><path fill="#3A3A3A" d="M130.468 10.029c23.21-6.626 46.173 5.605 69.231 7.442.417.037.398.743-.038.743-23.741-.39-44.921-12.398-69.022-7.461-.417.092-.588-.613-.171-.724Z"/><path fill="#3A3A3A" d="M198.845 18.696c-12.287-.297-22.28 6.2-33.904 8.816-10.733 2.395-22.736 1.726-31.515 9.169-.512.427-1.289-.39-.796-.872 7.129-6.96 18.032-7.202 27.381-8.798 13.33-2.283 25.049-9.93 38.872-9.243.531.019.493.947-.038.928Z"/><path fill="#3A3A3A" d="M133.862 35.196c4.855.186 10.714.928 15.018 3.248.436.241.247.89-.265.817-2.522-.372-4.987-1.3-7.49-1.838-2.408-.5-4.854-.798-7.301-1.04-.682-.073-.644-1.224.057-1.206l-.019.019Z"/><path fill="#3A3A3A" d="M148.957 38.76c-9.064.65-13.52 8.983-20.915 12.899-7.035 3.73-15.549 4.51-23.4 4.918-.531.019-.777-.798-.208-.928 10.486-2.413 20.232-2.171 28.898-9.577 4.74-4.064 8.893-8.37 15.549-8.37.682 0 .796 1.002.095 1.039l-.019.019Z"/><path fill="#3A3A3A" d="M107.619 55.946c2.18 1.54 4.589 2.729 6.75 4.306.474.334.076 1.077-.474.984-17.16-2.988-33.278 5.067-50.154 5.605-.493 0-.759-.742-.209-.891 10.941-2.71 22.603-4.826 33.81-6.013.075 0 14.543-.91 14.448-.167 0-.149-4.38-2.395-4.968-3.137-.398-.501.323-1.04.797-.705v.018ZM49.52 14.13c-1.271.186-2.447.539-3.736.631-.531.038-.569-.686-.076-.779 1.252-.26 2.427-.705 3.698-.872.682-.093.758.928.095 1.02h.018ZM42.636 12.256c-7.206 1.912-13.615 4.287-19.588 8.742-.38.278-.891-.26-.569-.613 4.987-5.364 12.97-7.201 19.872-8.872.493-.11.778.613.285.743ZM18.763 25.693a6.365 6.365 0 0 0-2.124 1.745c-.569.705-.91 1.54-1.422 2.283-.285.408-.854.037-.816-.371.228-2.005 2.067-3.768 3.812-4.622.569-.278 1.1.687.53.984l.02-.019ZM9.642 47.019c.683 4.473 1.308 9.169 2.92 13.419 2.162 5.735 5.973 8.593 11.32 11.396.456.24.266 1.002-.284.872-12.003-2.988-13.69-15.46-14.752-25.613-.057-.501.72-.575.796-.074ZM79.972 67.695c-14.752 2.45-29.922 10.226-45.13 8.24-.568-.074-.55-1.02.038-1.02 15.758.334 29.524-7.573 44.997-8.148.607-.019.683.816.095.91v.018ZM34.938 79.981c-2.2 0-4.551-.538-6.694-.983-.493-.112-.474-.817.038-.873 2.2-.278 4.513.65 6.713.836.587.055.55 1.039-.038 1.039l-.02-.019ZM74.207.971c-8.76 1.485-16.136 7.462-25.03 8.222-.455.038-.663-.686-.189-.798 8.666-2.023 16.288-7.09 25.125-8.389.644-.093.72.873.094.965ZM8.922 34.045c-1.669 7.591-5.253 13.79-1.669 21.493.209.464-.455.724-.758.39-5.177-6.144-.683-15.683 1.46-22.18.17-.538 1.08-.24.967.297ZM1.754 44.402c-.36 1.132-.626 2.283-.645 3.47 0 1.04.227 2.024.284 3.044.02.483-.625.613-.834.186-1.005-2.171-.493-4.844.265-6.997.171-.501 1.1-.223.93.297ZM4.978 58.118c2.294 6.384 5.707 11.117 11.662 14.662.455.278.151.91-.36.724-6.562-2.394-10.24-8.872-12.155-15.09-.171-.538.663-.853.853-.315v.019ZM166.932 32.746c-5.138.074-9.576 1.207-14.544 2.32-.549.13-.815-.557-.303-.817 4.342-2.134 10.088-2.913 14.885-2.468.55.056.531.965-.038.965Z"/></svg>
