<svg xmlns="http://www.w3.org/2000/svg" width="179" height="40" fill="none"><g clip-path="url(#a)"><g clip-path="url(#b)"><path fill="#4EAAFF" fill-rule="evenodd" d="m38.265 13.427.982.426c.568.246.877.877.706 1.485-.133.47-.424.677-.76.835a.395.395 0 0 1-.527-.2.943.943 0 0 0-.738-.546c.012.002-17.802-2.297-17.858-2.3a1.25 1.25 0 0 0-.231 2.488l6.585.85 9.485 1.223a.39.39 0 0 1 .34.388v13.8a1.25 1.25 0 0 1-1.31 1.248c-.672-.03-1.19-.61-1.19-1.283V18.529l-13.253 5.743c-.32.139-.679.137-.994 0L8.618 19.556l-7.867-3.41c-.996-.43-1.006-1.858 0-2.293l18.751-8.126c.317-.137.677-.137.994 0l17.769 7.7ZM8.044 22.032l10.463 4.534a3.745 3.745 0 0 0 2.982 0l10.464-4.534a.39.39 0 0 1 .546.358v4.485c0 4.206-5.49 7.5-12.5 7.5s-12.5-3.294-12.5-7.5V22.39a.39.39 0 0 1 .545-.358Z" clip-rule="evenodd"/></g></g><path fill="#4EAAFF" d="M55.272 27.788c-3.072 0-5.28-1.032-6.768-2.544l1.848-2.592a7.019 7.019 0 0 0 5.088 2.16c1.872 0 2.784-.864 2.784-1.776 0-2.832-9.216-.888-9.216-6.912 0-2.664 2.304-4.872 6.072-4.872 2.544 0 4.656.768 6.24 2.232l-1.896 2.496c-1.296-1.2-3.024-1.752-4.656-1.752-1.464 0-2.28.648-2.28 1.608 0 2.544 9.192.84 9.192 6.816 0 2.928-2.088 5.136-6.408 5.136Zm26.079-.288h-3.072v-7.32c0-1.08-.48-1.848-1.728-1.848-1.08 0-1.968.72-2.4 1.344V27.5h-3.072v-7.32c0-1.08-.48-1.848-1.728-1.848-1.056 0-1.944.72-2.4 1.368v7.8h-3.048V15.908h3.048v1.512c.48-.696 2.016-1.8 3.792-1.8 1.704 0 2.784.792 3.216 2.112.672-1.056 2.208-2.112 3.984-2.112 2.136 0 3.408 1.128 3.408 3.504V27.5Zm12.997 0H91.3v-1.2c-.792.936-2.16 1.488-3.672 1.488-1.848 0-4.032-1.248-4.032-3.84 0-2.712 2.184-3.744 4.032-3.744 1.536 0 2.904.504 3.672 1.416v-1.56c0-1.176-1.008-1.944-2.544-1.944-1.248 0-2.4.456-3.384 1.368l-1.152-2.04c1.416-1.248 3.24-1.824 5.064-1.824 2.64 0 5.064 1.056 5.064 4.392V27.5Zm-5.496-1.776c.984 0 1.944-.336 2.448-1.008v-1.44c-.504-.672-1.464-1.008-2.448-1.008-1.2 0-2.184.624-2.184 1.752 0 1.08.984 1.704 2.184 1.704ZM100.42 27.5h-3.048V15.908h3.048v1.584c.816-1.032 2.256-1.872 3.696-1.872v2.976a4.048 4.048 0 0 0-.84-.072c-1.008 0-2.352.576-2.856 1.32V27.5Zm9.489.288c-2.136 0-3.288-1.104-3.288-3.168v-6.048h-1.92v-2.664h1.92V12.74h3.072v3.168h2.352v2.664h-2.352v5.232c0 .72.384 1.272 1.056 1.272.456 0 .888-.168 1.056-.336l.648 2.304c-.456.408-1.272.744-2.544.744Z"/><path fill="#fff" d="M119.889 27.788c-3.072 0-5.28-1.032-6.768-2.544l1.848-2.592a7.019 7.019 0 0 0 5.088 2.16c1.872 0 2.784-.864 2.784-1.776 0-2.832-9.216-.888-9.216-6.912 0-2.664 2.304-4.872 6.072-4.872 2.544 0 4.656.768 6.24 2.232l-1.896 2.496c-1.296-1.2-3.024-1.752-4.656-1.752-1.464 0-2.28.648-2.28 1.608 0 2.544 9.192.84 9.192 6.816 0 2.928-2.088 5.136-6.408 5.136Zm12.191 0c-2.136 0-3.288-1.104-3.288-3.168v-6.048h-1.92v-2.664h1.92V12.74h3.072v3.168h2.352v2.664h-2.352v5.232c0 .72.384 1.272 1.056 1.272.456 0 .888-.168 1.056-.336l.648 2.304c-.456.408-1.272.744-2.544.744Zm15.093-.288h-3.048v-1.464c-.792.888-2.184 1.752-4.08 1.752-2.544 0-3.744-1.392-3.744-3.648v-8.232h3.048v7.032c0 1.608.84 2.136 2.136 2.136 1.176 0 2.112-.648 2.64-1.32v-7.848h3.048V27.5Zm14.067 0h-3.072v-1.488c-.912 1.152-2.184 1.776-3.576 1.776-2.928 0-5.136-2.208-5.136-6.072 0-3.792 2.184-6.096 5.136-6.096 1.368 0 2.664.6 3.576 1.776v-5.904h3.072V27.5Zm-5.712-2.424c1.032 0 2.136-.552 2.64-1.32v-4.104c-.504-.768-1.608-1.32-2.64-1.32-1.728 0-2.928 1.368-2.928 3.384 0 1.992 1.2 3.36 2.928 3.36Zm8.326 6.96.456-2.736c.264.12.672.192.96.192.792 0 1.32-.216 1.608-.84l.432-.984-4.704-11.76h3.264l3.024 8.064 3.024-8.064h3.288l-5.448 13.488c-.864 2.184-2.4 2.76-4.392 2.808-.36 0-1.128-.072-1.512-.168Z"/><defs><clipPath id="a"><path fill="#fff" d="M0 0h40v40H0z"/></clipPath><clipPath id="b"><path fill="#fff" d="M0 0h40v40H0z"/></clipPath></defs></svg>
